<svg height="512" viewBox="0 0 512 512" width="512" xmlns="http://www.w3.org/2000/svg"><g id="Outline"><path d="m37.333 334.175 5.334-15.084a16.033 16.033 0 0 1 -10.667-15.091v-256a16.019 16.019 0 0 1 16-16h336a16.032 16.032 0 0 1 15.091 10.668l15.084-5.336a32.059 32.059 0 0 0 -30.175-21.332h-336a32.036 32.036 0 0 0 -32 32v256a32.058 32.058 0 0 0 21.333 30.175z"/><path d="m456 96v-8a32.036 32.036 0 0 0 -32-32h-336a32.036 32.036 0 0 0 -32 32v256a32.058 32.058 0 0 0 21.333 30.175l5.334-15.084a16.033 16.033 0 0 1 -10.667-15.091v-256a16.019 16.019 0 0 1 16-16h336a16.019 16.019 0 0 1 16 16v8z"/><path d="m429.657 98.343a8 8 0 0 0 -5.657-2.343h-296a32.036 32.036 0 0 0 -32 32v256a32.036 32.036 0 0 0 32 32h160v-16h-160a16.019 16.019 0 0 1 -16-16v-256a16.019 16.019 0 0 1 16-16h288v32a32.036 32.036 0 0 0 32 32h32v200h16v-208a8 8 0 0 0 -2.343-5.657zm2.343 45.657v-20.686l36.686 36.686h-20.686a16.019 16.019 0 0 1 -16-16z"/><path d="m128 128h16v16h-16z"/><path d="m160 128h16v16h-16z"/><path d="m192 128h16v16h-16z"/><path d="m128 160h272v16h-272z"/><path d="m224 264a72 72 0 1 0 72-72 72.081 72.081 0 0 0 -72 72zm128 0a56 56 0 1 1 -56-56 56.063 56.063 0 0 1 56 56z"/><path d="m267.984 225.081a8 8 0 0 0 -3.984 6.919v64a8 8 0 0 0 11.969 6.946l56-32a8 8 0 0 0 0-13.892l-56-32a8 8 0 0 0 -7.985.027zm12.016 20.704 31.875 18.215-31.875 18.215z"/><path d="m472 384a23.9 23.9 0 0 0 -16 6.126 23.958 23.958 0 0 0 -32 0 23.979 23.979 0 0 0 -24-4.755v-41.371a24 24 0 0 0 -48 0v68.687l-5.373-5.374a24.971 24.971 0 0 0 -42.627 17.658v.752a24.991 24.991 0 0 0 6.011 16.25l43.915 51.233a8 8 0 0 0 6.074 2.794h128a8 8 0 0 0 8-8v-80a24.028 24.028 0 0 0 -24-24zm8 96h-116.32l-41.52-48.439a8.977 8.977 0 0 1 -2.16-5.838v-.752a8.97 8.97 0 0 1 15.314-6.343l19.029 19.029a8 8 0 0 0 13.657-5.657v-88a8 8 0 0 1 16 0v64a8 8 0 0 0 16 0 8 8 0 0 1 16 0 8 8 0 0 0 16 0 8 8 0 0 1 16 0 8 8 0 0 0 16 0 8 8 0 0 1 16 0z"/><path d="m416 352h32v16h-32z"/><path d="m200 384a24.039 24.039 0 0 0 22.624-16h113.376v-16h-113.376a24 24 0 0 0 -45.248 0h-33.376v16h33.376a24.039 24.039 0 0 0 22.624 16zm0-32a8 8 0 1 1 -8 8 8.009 8.009 0 0 1 8-8z"/></g></svg>